<?xml version="1.0" encoding="utf-8"?>
<!-- Generator: Adobe Illustrator 16.0.0, SVG Export Plug-In . SVG Version: 6.00 Build 0)  -->
<!DOCTYPE svg PUBLIC "-//W3C//DTD SVG 1.1//EN" "http://www.w3.org/Graphics/SVG/1.1/DTD/svg11.dtd">
<svg version="1.1" id="Layer_1" xmlns="http://www.w3.org/2000/svg" xmlns:xlink="http://www.w3.org/1999/xlink" x="0px" y="0px"
	 width="153.07px" height="153.07px" viewBox="0 0 153.07 153.07" enable-background="new 0 0 153.07 153.07" xml:space="preserve">
<circle fill="#7DC67F" cx="76.535" cy="76.535" r="76.536"/>
<path fill="#FFFFFF" d="M47.13,35.368c-6.488,0-11.762,5.273-11.762,11.762v58.812c0,6.486,5.273,11.762,11.762,11.762h58.812
	c6.486,0,11.762-5.275,11.762-11.762V47.13c0-6.488-5.275-11.762-11.762-11.762H47.13z M58.891,53.01
	c3.248,0,5.881,2.634,5.881,5.882s-2.633,5.881-5.881,5.881s-5.881-2.633-5.881-5.881S55.643,53.01,58.891,53.01z M70.654,76.535
	c0-3.248,2.633-5.881,5.881-5.881c3.249,0,5.881,2.633,5.881,5.881c0,3.249-2.633,5.881-5.881,5.881
	C73.287,82.416,70.654,79.783,70.654,76.535z M94.178,88.297c3.248,0,5.881,2.635,5.881,5.881c0,3.248-2.633,5.883-5.881,5.883
	s-5.881-2.635-5.881-5.883C88.297,90.932,90.93,88.297,94.178,88.297z"/>
</svg>
