<?xml version="1.0" encoding="utf-8"?>
<!-- Generator: Adobe Illustrator 16.0.0, SVG Export Plug-In . SVG Version: 6.00 Build 0)  -->
<!DOCTYPE svg PUBLIC "-//W3C//DTD SVG 1.1//EN" "http://www.w3.org/Graphics/SVG/1.1/DTD/svg11.dtd">
<svg version="1.1" id="Layer_1" xmlns="http://www.w3.org/2000/svg" xmlns:xlink="http://www.w3.org/1999/xlink" x="0px" y="0px"
	 width="141.73px" height="141.73px" viewBox="0 0 141.73 141.73" enable-background="new 0 0 141.73 141.73" xml:space="preserve">
<g>
	<g id="XMLID_1_">
		<g>
			<polygon fill="#F3954F" points="129.728,36.859 129.728,104.841 70.865,138.832 70.865,70.85 			"/>
			<polygon fill="#6BC6A5" points="129.728,36.859 70.865,70.85 12.002,36.859 70.865,2.898 			"/>
			<polygon fill="#F9D162" points="70.865,70.85 70.865,138.832 12.002,104.841 12.002,36.859 			"/>
		</g>
		<g>
		</g>
	</g>
	<path fill="#FFFFFF" d="M41.371,81.452c-3.096-1.787-5.634-0.346-5.644,3.216c-0.01,3.588,2.512,7.952,5.606,9.741
		c3.122,1.802,5.658,0.354,5.669-3.23C47.013,87.619,44.494,83.253,41.371,81.452"/>
	<path fill="#FFFFFF" d="M23.801,50.986c-3.122-1.8-5.658-0.357-5.669,3.231c-0.01,3.588,2.509,7.949,5.631,9.756
		c3.119,1.8,5.654,0.354,5.668-3.234C29.438,57.157,26.919,52.79,23.801,50.986"/>
	<path fill="#FFFFFF" d="M58.97,111.9c-1.689-0.977-3.362-1.065-4.473-0.035c-1.923,1.722-1.478,6.043,1,9.676
		c1.021,1.497,2.226,2.63,3.432,3.32c1.69,0.978,3.366,1.078,4.474,0.063c1.923-1.744,1.456-6.079-0.998-9.696
		C61.378,113.73,60.169,112.596,58.97,111.9"/>
	<path fill="#FFFFFF" d="M59.082,71.359c-3.118-1.804-5.654-0.356-5.666,3.228c-0.01,3.591,2.509,7.955,5.632,9.756
		c3.096,1.787,5.634,0.343,5.644-3.241C64.702,77.51,62.183,73.148,59.082,71.359"/>
	<path fill="#FFFFFF" d="M23.683,91.533c-1.689-0.976-3.362-1.068-4.471-0.041c-1.919,1.725-1.453,6.079,1,9.676
		c1.018,1.502,2.223,2.638,3.425,3.332c1.689,0.976,3.369,1.07,4.48,0.056c1.923-1.721,1.48-6.07-1-9.675
		C26.097,93.37,24.884,92.229,23.683,91.533"/>
	<path fill="#FFFFFF" d="M100.287,81.449c-3.123,1.801-5.646,6.168-5.635,9.753c0.011,3.584,2.546,5.029,5.667,3.227
		c3.123-1.804,5.642-6.165,5.633-9.755C105.94,81.092,103.403,79.642,100.287,81.449"/>
	<path fill="#FFFFFF" d="M82.597,71.365c-3.123,1.804-5.641,6.168-5.63,9.756c0.009,3.585,2.546,5.032,5.669,3.225
		c3.094-1.783,5.618-6.151,5.606-9.737S85.696,69.578,82.597,71.365"/>
	<path fill="#FFFFFF" d="M117.987,91.538c-1.688,0.977-3.355,2.809-4.472,5.104c-1.882,3.944-1.413,7.741,1.047,8.52
		c1.039,0.309,2.252,0.043,3.454-0.651c1.688-0.976,3.358-2.805,4.476-5.104c1.881-3.943,1.414-7.739-1.054-8.516
		C120.402,90.585,119.192,90.843,117.987,91.538"/>
	<path fill="#FFFFFF" d="M111.665,33.884c-3.119-1.801-8.16-1.801-11.26,0c-3.102,1.804-3.088,4.723,0.035,6.524
		c3.123,1.8,8.16,1.8,11.263,0C114.803,38.607,114.788,35.688,111.665,33.884"/>
	<path fill="#FFFFFF" d="M41.33,33.89c-1.687-0.974-4.111-1.499-6.666-1.308c-4.335,0.332-7.412,2.643-6.826,5.158
		c0.237,1.053,1.073,1.981,2.279,2.677c1.688,0.974,4.109,1.499,6.662,1.304c4.338-0.328,7.411-2.64,6.83-5.154
		C43.368,35.511,42.536,34.586,41.33,33.89"/>
	<path fill="#FFFFFF" d="M76.611,54.257c-3.121-1.804-8.164-1.804-11.265,0c-3.097,1.8-3.083,4.721,0.039,6.522
		c3.119,1.8,8.161,1.8,11.263,0C79.747,58.978,79.73,56.058,76.611,54.257"/>
	<path fill="#FFFFFF" d="M76.374,13.531c-1.684-0.974-4.107-1.507-6.655-1.321c-4.379,0.328-7.407,2.646-6.85,5.169
		c0.251,1.047,1.083,1.966,2.282,2.66c1.694,0.976,4.123,1.507,6.688,1.313c4.335-0.332,7.384-2.632,6.804-5.169
		C78.4,15.138,77.572,14.222,76.374,13.531"/>
	<path fill="#FFFFFF" d="M94.013,23.712c-1.694-0.977-4.115-1.507-6.661-1.322c-4.356,0.342-7.41,2.643-6.828,5.181
		c0.239,1.041,1.067,1.958,2.266,2.648c1.686,0.976,4.117,1.505,6.68,1.313c4.338-0.332,7.387-2.632,6.828-5.158
		C96.044,25.327,95.212,24.405,94.013,23.712"/>
	<path fill="#FFFFFF" d="M58.963,44.071c-1.69-0.976-4.111-1.499-6.665-1.308c-4.339,0.328-7.411,2.643-6.809,5.169
		c0.23,1.05,1.059,1.972,2.26,2.666c1.685,0.971,4.109,1.497,6.663,1.305c4.337-0.329,7.411-2.643,6.825-5.155
		C61.001,45.689,60.167,44.767,58.963,44.071"/>
</g>
</svg>
