<?xml version="1.0" encoding="utf-8"?>
<!-- Generator: Adobe Illustrator 16.0.0, SVG Export Plug-In . SVG Version: 6.00 Build 0)  -->
<!DOCTYPE svg PUBLIC "-//W3C//DTD SVG 1.1//EN" "http://www.w3.org/Graphics/SVG/1.1/DTD/svg11.dtd">
<svg version="1.1" id="Layer_1" xmlns="http://www.w3.org/2000/svg" xmlns:xlink="http://www.w3.org/1999/xlink" x="0px" y="0px"
	 width="153.071px" height="153.071px" viewBox="118.464 345.464 153.071 153.071"
	 enable-background="new 118.464 345.464 153.071 153.071" xml:space="preserve">
<circle fill="#FB6B1C" cx="195" cy="421.999" r="76.536"/>
<path fill="#1E3050" d="M165.595,380.833c-6.488,0-11.762,5.274-11.762,11.762v58.811c0,6.487,5.274,11.762,11.762,11.762h58.811
	c6.487,0,11.762-5.274,11.762-11.762v-58.811c0-6.488-5.274-11.762-11.762-11.762H165.595z M177.357,398.476
	c3.248,0,5.881,2.633,5.881,5.881c0,3.248-2.633,5.881-5.881,5.881c-3.248,0-5.881-2.633-5.881-5.881
	C171.476,401.109,174.109,398.476,177.357,398.476z M189.119,422c0-3.248,2.633-5.881,5.881-5.881s5.881,2.633,5.881,5.881
	s-2.633,5.881-5.881,5.881S189.119,425.248,189.119,422z M212.643,433.762c3.249,0,5.882,2.634,5.882,5.881
	c0,3.248-2.633,5.882-5.882,5.882c-3.247,0-5.881-2.634-5.881-5.882C206.762,436.396,209.396,433.762,212.643,433.762z"/>
</svg>
