<?xml version="1.0" encoding="utf-8"?>
<!-- Generator: Adobe Illustrator 16.0.0, SVG Export Plug-In . SVG Version: 6.00 Build 0)  -->
<!DOCTYPE svg PUBLIC "-//W3C//DTD SVG 1.1//EN" "http://www.w3.org/Graphics/SVG/1.1/DTD/svg11.dtd">
<svg version="1.1" id="icon-0" xmlns:svgjs="http://svgjs.dev/svgjs"
	 xmlns="http://www.w3.org/2000/svg" xmlns:xlink="http://www.w3.org/1999/xlink" x="0px" y="0px" width="103.505px"
	 height="103.522px" viewBox="-4.021 -4.021 103.505 103.522" enable-background="new -4.021 -4.021 103.505 103.522"
	 xml:space="preserve">
<g transform="matrix(0.8046875,0,0,0.8046875,12.760752631578946,12.760752631578946)">
	<g id="tight-bounds" transform="matrix(1,0,0,1,-0.24049999999999727,-0.24049999999999727)">
		<rect x="-12388.572" y="-14893.504" display="none" fill="none" width="128.648" height="128.648"/>
	</g>
</g>
<g>
	<g>
		<g id="textblocktransform">
			<g>
				<g>
					<g>
						<g>
							<path fill="#0A5688" d="M47.74-4.021c-28.541,0-51.762,23.221-51.762,51.762c0,28.54,23.221,51.761,51.762,51.761
								c28.538,0,51.759-23.221,51.759-51.761C99.499,19.199,76.278-4.021,47.74-4.021z M47.74,94.571
								c-25.822,0-46.832-21.008-46.832-46.831c0-25.822,21.01-46.832,46.832-46.832c25.821,0,46.829,21.01,46.829,46.832
								C94.569,73.563,73.562,94.571,47.74,94.571z"/>
							<path fill="#0A5688" d="M47.74,10.766c-20.389,0-36.973,16.586-36.973,36.975c0,20.388,16.584,36.976,36.973,36.976
								c20.388,0,36.976-16.588,36.976-36.976C84.716,27.352,68.128,10.766,47.74,10.766z M57.599,43.053
								c-0.723-1.346-1.232-3.225-1.232-5.354s0.51-4.008,1.232-5.354c0.707-1.314,1.619-2.119,2.465-2.119s1.756,0.805,2.465,2.119
								c0.721,1.346,1.232,3.225,1.232,5.354s-0.512,4.008-1.232,5.354c-0.709,1.314-1.619,2.119-2.465,2.119
								S58.306,44.367,57.599,43.053z M62.528,76.142V49.546c3.697-1.499,6.162-6.138,6.162-11.845c0-6.955-3.789-12.4-8.627-12.4
								c-4.84,0-8.627,5.447-8.627,12.4c0,5.709,2.465,10.346,6.162,11.845V78.14c0,0.025,0.014,0.047,0.014,0.072
								c-3.111,1.014-6.426,1.574-9.872,1.574c-2.549,0-4.93-0.33-7.395-0.896V49.138c1.232-0.385,4.063-1.29,5.367-2.724
								c2.262-2.492,2.027-5.514,2.027-5.617V28.842c0-1.361-1.104-2.465-2.465-2.465s-2.465,1.104-2.465,2.465l0.012,12.189
								c0,0.014,0.041,1.188-0.758,2.066c-0.434,0.475-1.719,0.766-1.719,0.969V28.842c0-1.361-1.104-2.465-2.465-2.465
								s-2.465,1.104-2.465,2.465V44.15c-1.232-0.201-1.379-0.51-1.781-0.936c-0.746-0.793-0.695-1.832-0.695-1.832
								c0.008-0.082,0.014-0.166,0.014-0.248V28.842c0-1.361-1.104-2.465-2.465-2.465c-1.363,0-2.465,1.104-2.465,2.465v12.209
								c0,0.715-0.031,3.273,1.924,5.432c1.307,1.449,3.004,2.349,5.469,2.698v28.133c-12.324-4.842-19.719-16.27-19.719-29.573
								c0-17.67,14.375-32.045,32.043-32.045c17.669,0,32.046,14.375,32.046,32.045C79.786,60.077,72.388,70.786,62.528,76.142z"/>
						</g>
					</g>
				</g>
			</g>
		</g>
	</g>
</g>
</svg>
