<?xml version="1.0" encoding="utf-8"?>
<!-- Generator: Adobe Illustrator 16.0.0, SVG Export Plug-In . SVG Version: 6.00 Build 0)  -->
<!DOCTYPE svg PUBLIC "-//W3C//DTD SVG 1.1//EN" "http://www.w3.org/Graphics/SVG/1.1/DTD/svg11.dtd">
<svg version="1.1" id="icon-0" xmlns:svgjs="http://svgjs.dev/svgjs"
	 xmlns="http://www.w3.org/2000/svg" xmlns:xlink="http://www.w3.org/1999/xlink" x="0px" y="0px" width="103.504px"
	 height="103.521px" viewBox="0 0 103.504 103.521" enable-background="new 0 0 103.504 103.521" xml:space="preserve">
<g transform="matrix(0.8046875,0,0,0.8046875,12.760752631578946,12.760752631578946)">
	<g id="tight-bounds" transform="matrix(1,0,0,1,-0.24049999999999727,-0.24049999999999727)">
		<rect x="-12388.565" y="-14893.495" display="none" fill="none" width="128.65" height="128.648"/>
	</g>
</g>
<g>
	<g>
		<g id="textblocktransform">
			<g>
				<g>
					<g>
						<g>
							<path fill="#F9D162" d="M51.754-0.001c-28.541,0-51.763,23.222-51.763,51.763c0,28.54,23.222,51.761,51.763,51.761
								c28.537,0,51.758-23.221,51.758-51.761C103.512,23.22,80.292-0.001,51.754-0.001z M51.754,98.591
								c-25.822,0-46.832-21.008-46.832-46.83S25.932,4.929,51.754,4.929c25.82,0,46.828,21.01,46.828,46.832
								S77.576,98.591,51.754,98.591z"/>
							<path fill="#6BC6A5" d="M51.754,14.786c-20.39,0-36.974,16.586-36.974,36.976c0,20.388,16.584,36.976,36.974,36.976
								c20.387,0,36.975-16.588,36.975-36.976C88.729,31.372,72.141,14.786,51.754,14.786z M61.613,47.073
								c-0.724-1.346-1.231-3.225-1.231-5.354c0-2.13,0.51-4.009,1.231-5.354c0.707-1.313,1.618-2.119,2.465-2.119
								s1.756,0.806,2.465,2.119c0.722,1.346,1.231,3.225,1.231,5.354c0,2.129-0.512,4.008-1.231,5.354
								c-0.709,1.314-1.618,2.119-2.465,2.119S62.32,48.388,61.613,47.073z M66.542,80.162V53.567
								c3.697-1.499,6.162-6.138,6.162-11.845c0-6.955-3.789-12.4-8.627-12.4c-4.84,0-8.627,5.447-8.627,12.4
								c0,5.709,2.465,10.346,6.162,11.845V82.16c0,0.025,0.014,0.047,0.014,0.072c-3.111,1.014-6.426,1.574-9.871,1.574
								c-2.55,0-4.931-0.33-7.396-0.896V53.158c1.232-0.385,4.063-1.29,5.367-2.724c2.262-2.492,2.027-5.515,2.027-5.617V32.863
								c0-1.361-1.104-2.465-2.466-2.465c-1.36,0-2.465,1.104-2.465,2.465l0.012,12.189c0,0.014,0.041,1.188-0.758,2.065
								c-0.434,0.475-1.719,0.766-1.719,0.969V32.863c0-1.361-1.104-2.465-2.465-2.465s-2.465,1.104-2.465,2.465V48.17
								c-1.232-0.2-1.379-0.51-1.781-0.936c-0.746-0.793-0.695-1.832-0.695-1.832c0.008-0.082,0.015-0.166,0.015-0.248V32.863
								c0-1.361-1.104-2.465-2.466-2.465c-1.362,0-2.465,1.104-2.465,2.465v12.209c0,0.715-0.03,3.273,1.924,5.432
								c1.308,1.449,3.005,2.35,5.47,2.698v28.133c-12.324-4.842-19.72-16.27-19.72-29.572c0-17.671,14.375-32.046,32.044-32.046
								s32.046,14.375,32.046,32.046C83.799,64.098,76.402,74.807,66.542,80.162z"/>
						</g>
					</g>
				</g>
			</g>
		</g>
	</g>
</g>
</svg>
