<?xml version="1.0" encoding="utf-8"?>
<!-- Generator: Adobe Illustrator 16.0.0, SVG Export Plug-In . SVG Version: 6.00 Build 0)  -->
<!DOCTYPE svg PUBLIC "-//W3C//DTD SVG 1.1//EN" "http://www.w3.org/Graphics/SVG/1.1/DTD/svg11.dtd">
<svg version="1.1" id="Layer_1" xmlns="http://www.w3.org/2000/svg" xmlns:xlink="http://www.w3.org/1999/xlink" x="0px" y="0px"
	 width="32.149px" height="26.006px" viewBox="13.915 13.997 32.149 26.006" enable-background="new 13.915 13.997 32.149 26.006"
	 xml:space="preserve">
<g>
	<g>
		<path fill="#FB6B1C" d="M35.621,25.135c0.05-0.037,0.088-0.083,0.12-0.132c0.023-0.012,0.051-0.008,0.073-0.024
			c0.646-0.475,1.031-1.236,1.031-2.035c0-0.806-0.39-1.57-1.044-2.043c-0.222-0.16-0.532-0.111-0.692,0.111
			c-0.161,0.222-0.112,0.532,0.111,0.693c0.396,0.287,0.633,0.75,0.633,1.239c0,0.492-0.229,0.942-0.627,1.234
			c-0.044,0.033-0.076,0.075-0.105,0.117c-0.029,0.014-0.061,0.021-0.088,0.041c-0.645,0.473-1.032,1.234-1.032,2.034
			c0,0.806,0.392,1.569,1.045,2.043c0.087,0.063,0.188,0.095,0.29,0.095c0.154,0,0.307-0.07,0.402-0.207
			c0.16-0.221,0.111-0.531-0.11-0.693c-0.397-0.287-0.633-0.75-0.633-1.238C34.995,25.877,35.225,25.427,35.621,25.135z"/>
		<path fill="#FB6B1C" d="M29.836,25.135c0.05-0.037,0.089-0.083,0.121-0.132c0.023-0.012,0.051-0.008,0.073-0.024
			c0.645-0.474,1.031-1.235,1.031-2.035c0-0.806-0.39-1.569-1.043-2.043c-0.043-0.031-0.091-0.048-0.14-0.063
			c-0.013-0.012-0.021-0.027-0.035-0.038c-0.397-0.287-0.633-0.751-0.633-1.239c0-0.493,0.229-0.942,0.626-1.234
			c0.22-0.162,0.268-0.473,0.106-0.694c-0.163-0.22-0.473-0.268-0.694-0.106c-0.646,0.474-1.031,1.234-1.031,2.035
			c0,0.805,0.39,1.569,1.043,2.043c0.036,0.026,0.079,0.023,0.118,0.039c0.02,0.02,0.034,0.044,0.057,0.062
			c0.396,0.288,0.633,0.751,0.633,1.24c0,0.492-0.228,0.942-0.626,1.234c-0.044,0.033-0.077,0.075-0.106,0.118
			c-0.029,0.014-0.061,0.021-0.087,0.041c-0.646,0.473-1.031,1.234-1.031,2.034c0,0.806,0.39,1.569,1.043,2.043
			c0.088,0.063,0.19,0.095,0.291,0.095c0.153,0,0.304-0.07,0.403-0.207c0.161-0.221,0.111-0.531-0.111-0.693
			c-0.397-0.287-0.633-0.75-0.633-1.238C29.21,25.876,29.439,25.427,29.836,25.135z"/>
		<path fill="#FB6B1C" d="M32.563,28.508c-0.103,0-0.203-0.031-0.291-0.095c-0.654-0.474-1.043-1.237-1.043-2.043
			c0-0.8,0.385-1.561,1.029-2.034c0.221-0.163,0.531-0.115,0.694,0.105c0.161,0.221,0.114,0.532-0.106,0.694
			c-0.396,0.292-0.625,0.741-0.625,1.234c0,0.489,0.235,0.952,0.633,1.238c0.223,0.162,0.271,0.473,0.11,0.693
			C32.866,28.438,32.715,28.508,32.563,28.508z"/>
		<path fill="#FB6B1C" d="M27.19,20.9c-0.043-0.032-0.092-0.048-0.141-0.064c-0.013-0.012-0.02-0.027-0.034-0.037
			c-0.397-0.287-0.634-0.751-0.634-1.239c0-0.493,0.229-0.942,0.626-1.234c0.05-0.037,0.088-0.083,0.12-0.131
			c0.025-0.012,0.053-0.008,0.076-0.025c0.646-0.473,1.031-1.234,1.031-2.034c0-0.807-0.39-1.57-1.043-2.044
			c-0.222-0.16-0.532-0.111-0.693,0.111c-0.162,0.221-0.112,0.532,0.11,0.693c0.396,0.288,0.633,0.751,0.633,1.24
			c0,0.492-0.228,0.942-0.626,1.234c-0.043,0.032-0.074,0.072-0.103,0.113c-0.031,0.014-0.063,0.022-0.092,0.042
			c-0.645,0.474-1.03,1.234-1.03,2.035c0,0.805,0.39,1.569,1.043,2.043c0.036,0.026,0.079,0.023,0.118,0.038
			c0.02,0.021,0.033,0.045,0.057,0.062c0.396,0.288,0.633,0.751,0.633,1.24c0,0.492-0.228,0.942-0.626,1.234
			c-0.044,0.033-0.076,0.074-0.106,0.117c-0.03,0.014-0.062,0.021-0.089,0.042c-0.645,0.473-1.03,1.234-1.03,2.034
			c0,0.806,0.39,1.569,1.043,2.043c0.088,0.063,0.19,0.095,0.291,0.095c0.153,0,0.305-0.07,0.402-0.207
			c0.161-0.221,0.111-0.531-0.11-0.693c-0.397-0.287-0.634-0.75-0.634-1.238c0-0.493,0.229-0.942,0.626-1.234
			c0.05-0.037,0.088-0.083,0.12-0.132c0.024-0.013,0.052-0.008,0.075-0.025c0.646-0.474,1.031-1.235,1.031-2.035
			C28.233,22.137,27.843,21.374,27.19,20.9z"/>
		<path fill="#FB6B1C" d="M32.518,18.326c0.05-0.037,0.088-0.083,0.12-0.132c0.023-0.012,0.051-0.008,0.072-0.024
			c0.646-0.474,1.031-1.235,1.031-2.034c0-0.807-0.39-1.571-1.043-2.044c-0.222-0.16-0.533-0.111-0.693,0.111
			c-0.161,0.223-0.112,0.533,0.111,0.694c0.397,0.287,0.633,0.75,0.633,1.239c0,0.491-0.229,0.942-0.627,1.234
			c-0.044,0.032-0.075,0.073-0.104,0.115c-0.029,0.014-0.061,0.021-0.088,0.041c-0.646,0.475-1.031,1.235-1.031,2.035
			c0,0.806,0.39,1.57,1.043,2.043c0.088,0.064,0.189,0.094,0.291,0.094c0.154,0,0.306-0.071,0.404-0.206
			c0.159-0.222,0.11-0.533-0.111-0.693c-0.397-0.287-0.635-0.75-0.635-1.239C31.891,19.068,32.12,18.618,32.518,18.326z"/>
		<g>
			<g>
				<path fill="#FB6B1C" d="M37.436,38.22H22.664c-0.274,0-0.496-0.223-0.496-0.497c0-0.273,0.222-0.496,0.496-0.496h14.771
					c0.274,0,0.496,0.223,0.496,0.496C37.932,37.997,37.71,38.22,37.436,38.22z"/>
			</g>
		</g>
		<path fill="#FB6B1C" d="M46.064,35.734c-0.034-0.124-0.115-0.22-0.216-0.282c-0.086-0.147-0.239-0.252-0.423-0.252H14.533
			c-0.212,0-0.39,0.133-0.461,0.318c-0.062,0.059-0.114,0.128-0.139,0.216c-0.075,0.265,0.078,0.539,0.342,0.613l5.434,1.536
			c0.334,1.232,2.178,2.119,3.415,2.119h13.75c1.237,0,3.082-0.887,3.414-2.119l5.435-1.536C45.986,36.273,46.141,36,46.064,35.734z
			 M39.71,37.018c-0.213,0.061-0.36,0.254-0.36,0.478c0,0.704-1.498,1.517-2.476,1.517h-13.75c-0.977,0-2.474-0.813-2.474-1.517
			c0-0.224-0.148-0.417-0.361-0.478l-2.913-0.824h25.247L39.71,37.018z"/>
		<path fill="#FB6B1C" d="M20.44,34.167c-0.149,0-0.298-0.065-0.395-0.194c-0.166-0.219-0.124-0.529,0.094-0.695
			c2.482-1.889,5.308-2.887,8.172-2.887c2.753,0,5.473,0.922,7.884,2.672l3.111-2.121c0.228-0.154,0.536-0.097,0.69,0.129
			c0.153,0.228,0.097,0.537-0.131,0.69l-3.405,2.321c-0.176,0.119-0.41,0.113-0.58-0.016c-2.308-1.758-4.926-2.686-7.571-2.686
			c-2.646,0-5.263,0.928-7.571,2.686C20.65,34.135,20.545,34.167,20.44,34.167z"/>
	</g>
</g>
</svg>
