<?xml version="1.0" encoding="utf-8"?>
<!-- Generator: Adobe Illustrator 16.0.0, SVG Export Plug-In . SVG Version: 6.00 Build 0)  -->
<!DOCTYPE svg PUBLIC "-//W3C//DTD SVG 1.1//EN" "http://www.w3.org/Graphics/SVG/1.1/DTD/svg11.dtd">
<svg version="1.1" id="Layer_1" xmlns="http://www.w3.org/2000/svg" xmlns:xlink="http://www.w3.org/1999/xlink" x="0px" y="0px"
	 width="32.148px" height="26.006px" viewBox="0 0 32.148 26.006" enable-background="new 0 0 32.148 26.006" xml:space="preserve">
<g>
	<g>
		<path fill="#FF9800" d="M21.698,11.138c0.05-0.036,0.088-0.083,0.12-0.132c0.022-0.012,0.051-0.008,0.072-0.023
			c0.646-0.476,1.031-1.236,1.031-2.035c0-0.807-0.39-1.57-1.044-2.043c-0.222-0.16-0.532-0.111-0.692,0.111
			c-0.16,0.221-0.111,0.531,0.111,0.692c0.396,0.287,0.633,0.75,0.633,1.239c0,0.492-0.229,0.941-0.627,1.233
			c-0.044,0.033-0.076,0.075-0.104,0.117c-0.029,0.015-0.062,0.021-0.088,0.041c-0.646,0.474-1.032,1.233-1.032,2.034
			c0,0.806,0.392,1.568,1.045,2.043c0.087,0.063,0.188,0.095,0.29,0.095c0.154,0,0.307-0.069,0.401-0.207
			c0.16-0.221,0.111-0.53-0.109-0.692c-0.397-0.287-0.633-0.75-0.633-1.238C21.072,11.88,21.301,11.43,21.698,11.138z"/>
		<path fill="#FF9800" d="M15.912,11.138c0.05-0.036,0.089-0.083,0.121-0.132c0.022-0.012,0.051-0.008,0.072-0.023
			c0.646-0.475,1.032-1.235,1.032-2.035c0-0.807-0.39-1.569-1.043-2.043c-0.043-0.031-0.091-0.049-0.14-0.063
			c-0.013-0.012-0.021-0.026-0.035-0.038c-0.397-0.287-0.633-0.751-0.633-1.238c0-0.494,0.229-0.942,0.626-1.234
			c0.22-0.162,0.268-0.473,0.105-0.694c-0.163-0.22-0.473-0.268-0.693-0.106c-0.646,0.475-1.031,1.234-1.031,2.035
			c0,0.806,0.39,1.569,1.043,2.043c0.036,0.026,0.079,0.023,0.118,0.039c0.02,0.021,0.034,0.045,0.057,0.063
			c0.396,0.288,0.633,0.751,0.633,1.24c0,0.492-0.228,0.941-0.626,1.234c-0.044,0.032-0.076,0.074-0.105,0.117
			c-0.029,0.014-0.062,0.021-0.087,0.041c-0.646,0.473-1.031,1.234-1.031,2.034c0,0.806,0.39,1.569,1.043,2.043
			c0.088,0.063,0.19,0.095,0.291,0.095c0.153,0,0.304-0.07,0.403-0.207c0.161-0.221,0.11-0.531-0.111-0.693
			c-0.397-0.286-0.633-0.75-0.633-1.237C15.286,11.879,15.514,11.43,15.912,11.138z"/>
		<path fill="#FF9800" d="M18.639,14.511c-0.103,0-0.203-0.03-0.291-0.095c-0.653-0.475-1.043-1.237-1.043-2.043
			c0-0.801,0.385-1.561,1.029-2.034c0.221-0.163,0.531-0.114,0.694,0.104c0.16,0.222,0.113,0.533-0.106,0.694
			c-0.396,0.292-0.625,0.741-0.625,1.234c0,0.489,0.235,0.952,0.633,1.237c0.224,0.162,0.271,0.474,0.11,0.693
			C18.943,14.441,18.791,14.511,18.639,14.511z"/>
		<path fill="#FF9800" d="M13.265,6.902c-0.043-0.031-0.092-0.047-0.141-0.063c-0.013-0.012-0.021-0.026-0.034-0.037
			c-0.396-0.286-0.634-0.751-0.634-1.239c0-0.492,0.229-0.941,0.626-1.233c0.05-0.037,0.088-0.083,0.12-0.132
			c0.024-0.012,0.053-0.008,0.076-0.024c0.646-0.473,1.03-1.233,1.03-2.034c0-0.807-0.39-1.57-1.043-2.044
			c-0.222-0.159-0.531-0.11-0.692,0.111c-0.162,0.221-0.112,0.532,0.109,0.692c0.396,0.289,0.634,0.752,0.634,1.24
			c0,0.492-0.229,0.942-0.626,1.234c-0.044,0.031-0.074,0.072-0.104,0.113c-0.031,0.014-0.063,0.021-0.092,0.041
			c-0.646,0.475-1.03,1.234-1.03,2.035c0,0.806,0.39,1.569,1.043,2.043c0.036,0.026,0.079,0.023,0.118,0.039
			c0.02,0.021,0.033,0.045,0.057,0.062c0.396,0.288,0.634,0.751,0.634,1.239c0,0.492-0.229,0.942-0.626,1.234
			c-0.045,0.033-0.076,0.074-0.106,0.117c-0.03,0.014-0.063,0.021-0.089,0.042c-0.646,0.474-1.03,1.233-1.03,2.034
			c0,0.806,0.39,1.568,1.043,2.043c0.088,0.063,0.19,0.095,0.291,0.095c0.153,0,0.305-0.069,0.402-0.207
			c0.161-0.221,0.11-0.53-0.11-0.692c-0.396-0.287-0.634-0.75-0.634-1.238c0-0.493,0.229-0.942,0.626-1.234
			c0.05-0.037,0.088-0.083,0.12-0.132c0.023-0.013,0.052-0.008,0.075-0.024c0.646-0.475,1.03-1.235,1.03-2.035
			C14.308,8.141,13.919,7.377,13.265,6.902z"/>
		<path fill="#FF9800" d="M18.594,4.329c0.05-0.037,0.088-0.083,0.12-0.132c0.023-0.012,0.051-0.008,0.072-0.024
			c0.646-0.474,1.031-1.235,1.031-2.034c0-0.807-0.391-1.57-1.043-2.044c-0.223-0.159-0.533-0.11-0.693,0.111
			C17.92,0.429,17.969,0.738,18.193,0.9c0.396,0.287,0.633,0.75,0.633,1.238c0,0.491-0.229,0.942-0.627,1.234
			c-0.044,0.031-0.075,0.072-0.104,0.115c-0.029,0.014-0.061,0.021-0.088,0.041c-0.646,0.475-1.031,1.234-1.031,2.035
			c0,0.806,0.391,1.569,1.043,2.043c0.088,0.063,0.189,0.094,0.291,0.094c0.154,0,0.307-0.071,0.404-0.206
			c0.159-0.222,0.11-0.533-0.111-0.693c-0.396-0.286-0.635-0.75-0.635-1.239C17.967,5.07,18.197,4.621,18.594,4.329z"/>
		<g>
			<g>
				<path fill="#FF9800" d="M23.512,24.223H8.74c-0.274,0-0.496-0.223-0.496-0.496S8.466,23.23,8.74,23.23h14.771
					c0.274,0,0.496,0.223,0.496,0.496C24.008,24,23.786,24.223,23.512,24.223z"/>
			</g>
		</g>
		<path fill="#FF9800" d="M32.14,21.736c-0.034-0.123-0.114-0.219-0.216-0.281c-0.086-0.146-0.239-0.252-0.423-0.252H0.609
			c-0.213,0-0.391,0.133-0.462,0.318c-0.062,0.059-0.113,0.127-0.139,0.215c-0.075,0.266,0.078,0.539,0.342,0.613l5.435,1.536
			c0.334,1.232,2.178,2.119,3.415,2.119h13.75c1.236,0,3.082-0.887,3.414-2.119l5.435-1.536
			C32.062,22.275,32.217,22.003,32.14,21.736z M25.786,23.021c-0.213,0.061-0.36,0.254-0.36,0.478c0,0.704-1.498,1.517-2.476,1.517
			H9.2c-0.978,0-2.475-0.813-2.475-1.517c0-0.224-0.147-0.417-0.36-0.478l-2.913-0.824h25.248L25.786,23.021z"/>
		<path fill="#FF9800" d="M6.515,20.17c-0.148,0-0.298-0.064-0.395-0.193c-0.166-0.22-0.124-0.529,0.094-0.695
			c2.482-1.889,5.308-2.887,8.172-2.887c2.753,0,5.474,0.922,7.884,2.672l3.111-2.121c0.229-0.154,0.536-0.098,0.69,0.129
			c0.152,0.228,0.097,0.537-0.131,0.689l-3.405,2.321c-0.176,0.119-0.41,0.112-0.58-0.017c-2.309-1.758-4.926-2.686-7.572-2.686
			c-2.646,0-5.263,0.928-7.571,2.686C6.725,20.138,6.621,20.17,6.515,20.17z"/>
	</g>
</g>
</svg>
